<?xml version="1.0" encoding="UTF-8" standalone="no"?>
<!-- Created with Inkscape (http://www.inkscape.org/) -->

<svg
   xmlns:dc="http://purl.org/dc/elements/1.1/"
   xmlns:cc="http://creativecommons.org/ns#"
   xmlns:rdf="http://www.w3.org/1999/02/22-rdf-syntax-ns#"
   xmlns:svg="http://www.w3.org/2000/svg"
   xmlns="http://www.w3.org/2000/svg"
   xmlns:sodipodi="http://sodipodi.sourceforge.net/DTD/sodipodi-0.dtd"
   xmlns:inkscape="http://www.inkscape.org/namespaces/inkscape"
   version="1.1"
   id="svg3680"
   xml:space="preserve"
   width="512"
   height="512"
   viewBox="0 0 512.00001 512.00001"
   sodipodi:docname="Unigram.svg"
   inkscape:version="0.92.1 r15371"><metadata
     id="metadata3686"><rdf:RDF><cc:Work
         rdf:about=""><dc:format>image/svg+xml</dc:format><dc:type
           rdf:resource="http://purl.org/dc/dcmitype/StillImage" /><dc:title></dc:title></cc:Work></rdf:RDF></metadata><defs
     id="defs3684"><clipPath
       clipPathUnits="userSpaceOnUse"
       id="clipPath3696"><path
         d="M 0,100 H 100 V 0 H 0 Z"
         id="path3694"
         inkscape:connector-curvature="0" /></clipPath></defs><sodipodi:namedview
     pagecolor="#ffffff"
     bordercolor="#666666"
     borderopacity="1"
     objecttolerance="10"
     gridtolerance="10"
     guidetolerance="10"
     inkscape:pageopacity="0"
     inkscape:pageshadow="2"
     inkscape:window-width="1366"
     inkscape:window-height="705"
     id="namedview3682"
     showgrid="false"
     inkscape:zoom="0.50251386"
     inkscape:cx="51.141292"
     inkscape:cy="251.24472"
     inkscape:window-x="-8"
     inkscape:window-y="-8"
     inkscape:window-maximized="1"
     inkscape:current-layer="g3688" /><g
     id="g3688"
     inkscape:groupmode="layer"
     inkscape:label="Unigram"
     transform="matrix(1.3333333,0,0,-1.3333333,0,512)"><g
       id="g3690"
       style="fill:#f9f9f9"
       transform="matrix(3.8400336,0,0,3.8401059,-0.00112664,-0.00628302)"
       inkscape:export-filename="C:\wamp64\www\unigram\img\bg-rocket.png"
       inkscape:export-xdpi="96"
       inkscape:export-ydpi="96"><g
         id="g3692"
         clip-path="url(#clipPath3696)"
         style="fill:#f9f9f9"><g
           id="g3698"
           transform="translate(66.6377,51.5918)"
           style="fill:#f9f9f9"><path
             d="m 0,0 c 4.151,4.153 4.155,10.889 0,15.044 -4.15,4.151 -10.891,4.151 -15.046,0 -4.15,-4.155 -4.15,-10.894 0,-15.044 C -10.887,-4.156 -4.154,-4.148 0,0 m -10.055,-39.758 c -3.862,-3.611 -7.859,-7.051 -11.768,-10.581 -1.972,-1.814 -2.328,-1.732 -3.149,0.75 -1.241,3.725 -2.474,7.413 -3.674,11.129 0.547,1.375 0.946,2.849 1.144,4.431 0.565,4.633 -0.371,8.874 -2.713,12.465 l -1.028,1.426 c -0.446,0.556 -0.929,1.095 -1.444,1.612 l -0.45,0.43 0.008,0.009 -0.448,0.453 c -0.511,0.504 -1.054,0.987 -1.633,1.435 l -1.408,1.021 c -3.586,2.371 -7.842,3.302 -12.453,2.725 -1.597,-0.194 -3.037,-0.609 -4.416,-1.151 -3.745,1.185 -7.424,2.431 -11.172,3.68 -2.465,0.802 -2.529,1.182 -0.733,3.173 3.548,3.87 6.976,7.872 10.59,11.742 0.77,0.834 1.923,1.539 3.015,1.86 4.543,1.213 9.153,2.109 13.665,3.422 1.216,0.319 2.526,1.121 3.364,2.08 11.775,13.764 25.698,24.679 42.569,31.562 7.425,3.008 15.174,4.801 23.205,4.448 0.926,-0.032 1.568,-0.095 2.111,-0.19 0.095,-0.53 0.151,-1.209 0.194,-2.094 0.336,-8.067 -1.43,-15.808 -4.457,-23.212 -6.891,-16.883 -17.804,-30.821 -31.57,-42.6 -0.97,-0.824 -1.741,-2.108 -2.091,-3.336 -1.271,-4.517 -2.184,-9.159 -3.409,-13.667 -0.306,-1.099 -1.009,-2.25 -1.849,-3.022 m -30.58,-3.818 c -8.092,-2.332 -16.233,-4.331 -24.435,-6.444 l -0.033,-0.034 c 0.002,0.008 0.002,0.013 0.007,0.026 -0.013,0 -0.017,0 -0.028,-0.004 l 0.034,0.03 c 2.11,8.201 4.112,16.348 6.444,24.441 1.39,4.897 5.017,7.979 10.12,8.612 4.926,0.599 9.047,-0.961 12.163,-4.322 0.004,-0.005 0.008,-0.005 0.012,-0.009 0.003,-0.004 0.007,-0.004 0.009,-0.013 3.358,-3.112 4.922,-7.237 4.325,-12.163 -0.635,-5.104 -3.721,-8.728 -8.618,-10.12"
             style="fill:#f9f9f9;fill-opacity:1;fill-rule:nonzero;stroke:none"
             id="path3700"
             inkscape:connector-curvature="0" /></g></g></g></g></svg>