<?xml version="1.0" standalone="no"?>
<!DOCTYPE svg PUBLIC "-//W3C//DTD SVG 20010904//EN"
 "http://www.w3.org/TR/2001/REC-SVG-20010904/DTD/svg10.dtd">
<svg version="1.0" xmlns="http://www.w3.org/2000/svg"
 width="16.000000pt" height="16.000000pt" viewBox="0 0 16.000000 16.000000"
 preserveAspectRatio="xMidYMid meet">
<metadata>
Created by potrace 1.11, written by Peter Selinger 2001-2013
</metadata>
<g transform="translate(0.000000,16.000000) scale(0.001290,-0.001290)"
fill="#000000" stroke="none">
<path d="M8545 8990 c-118 -11 -197 -20 -204 -24 -3 -2 -31 -7 -61 -11 -127
-16 -384 -86 -590 -162 -254 -93 -637 -278 -880 -423 -203 -121 -499 -325
-646 -443 -62 -50 -212 -174 -226 -187 -9 -8 -52 -46 -96 -85 -116 -102 -439
-429 -576 -582 -129 -146 -174 -179 -286 -212 -41 -12 -88 -26 -105 -31 -26
-8 -297 -75 -350 -86 -11 -2 -74 -18 -140 -34 -66 -17 -131 -33 -145 -36 -48
-10 -145 -72 -189 -121 -25 -26 -70 -75 -100 -108 -31 -33 -90 -98 -131 -145
-41 -46 -100 -111 -129 -145 -30 -33 -67 -73 -82 -90 -15 -16 -61 -68 -102
-114 -41 -46 -83 -99 -94 -118 l-18 -34 26 -23 c17 -15 151 -64 365 -134 187
-62 345 -112 352 -112 6 0 38 9 70 20 155 54 402 63 567 21 187 -48 343 -140
501 -298 158 -157 245 -306 295 -498 18 -71 23 -118 23 -225 1 -127 -6 -225
-17 -260 -3 -8 -15 -47 -27 -86 l-22 -71 102 -309 c55 -170 105 -317 110 -326
6 -10 10 -24 10 -32 0 -20 39 -66 57 -66 18 0 112 72 177 136 12 11 80 72 151
134 72 63 139 124 150 135 12 11 57 51 100 90 146 128 244 231 265 277 15 35
64 210 85 303 2 11 11 47 19 81 8 34 17 72 20 85 2 13 25 104 50 201 62 241
82 278 209 388 183 159 477 447 617 605 30 33 56 62 60 65 14 12 202 242 264
325 37 50 77 101 87 115 30 38 143 205 209 306 166 257 357 625 465 894 25 63
50 124 55 135 21 42 92 275 121 390 39 158 56 259 76 440 10 89 10 471 1 481
-10 9 -344 12 -443 4z m-1683 -1705 c151 -38 299 -155 371 -293 41 -77 40 -76
61 -167 56 -251 -82 -531 -319 -645 -46 -23 -94 -43 -107 -45 -13 -3 -43 -8
-68 -13 -169 -31 -369 33 -500 160 -118 115 -175 246 -185 428 -2 44 14 138
34 195 71 201 264 363 466 392 22 3 41 6 43 8 8 7 153 -7 204 -20z"/>
<path d="M4415 5338 c-142 -18 -293 -86 -383 -172 -70 -66 -137 -173 -171
-273 -31 -93 -204 -731 -218 -802 -2 -13 -8 -32 -14 -43 -5 -10 -8 -18 -5 -18
3 0 0 -15 -5 -32 -6 -18 -12 -40 -14 -48 -1 -8 -25 -103 -53 -210 -71 -279
-66 -251 -40 -246 13 3 57 14 98 25 41 11 219 56 395 101 283 72 539 139 645
170 19 6 85 24 145 41 139 39 257 96 328 160 257 229 297 686 85 977 -45 63
-161 181 -223 229 -145 112 -372 168 -570 141z"/>
</g>
</svg>
