<?xml version="1.0" standalone="no"?>
<!DOCTYPE svg PUBLIC "-//W3C//DTD SVG 20010904//EN"
 "http://www.w3.org/TR/2001/REC-SVG-20010904/DTD/svg10.dtd">
<svg version="1.0" xmlns="http://www.w3.org/2000/svg"
 width="700.000000pt" height="700.000000pt" viewBox="0 0 700.000000 700.000000"
 preserveAspectRatio="xMidYMid meet">
<metadata>
Created by potrace 1.11, written by Peter Selinger 2001-2013
</metadata>
<g transform="translate(0.000000,700.000000) scale(0.100000,-0.100000)"
fill="#000000" stroke="none">
<path d="M5797 6024 c-1 -1 -63 -4 -137 -7 -147 -7 -163 -9 -321 -38 -123 -22
-389 -95 -459 -126 -8 -3 -17 -7 -20 -8 -89 -22 -510 -219 -740 -346 -196
-109 -580 -375 -741 -513 -19 -17 -57 -49 -84 -71 -118 -96 -347 -321 -635
-622 -179 -188 -136 -168 -658 -298 -265 -66 -311 -80 -357 -111 -49 -32 -182
-166 -316 -319 -64 -74 -198 -222 -221 -246 -35 -37 -138 -171 -138 -180 0
-21 155 -79 510 -194 80 -25 152 -46 160 -47 8 0 49 10 90 21 172 48 377 47
534 -3 284 -91 555 -357 647 -636 33 -103 41 -155 40 -297 0 -139 -11 -215
-44 -308 -13 -38 -12 -44 48 -225 34 -102 65 -192 68 -200 3 -8 22 -66 42
-128 53 -161 71 -174 154 -102 9 8 35 30 56 49 75 64 168 146 204 180 20 18
65 59 100 90 220 195 308 287 331 350 23 60 65 211 100 361 49 209 94 368 121
425 22 47 49 80 121 145 264 243 508 488 638 640 30 36 57 67 60 70 31 30 220
279 285 375 23 33 67 98 98 144 31 46 57 85 57 88 0 3 8 17 19 31 118 169 366
677 454 932 59 169 118 400 133 518 3 26 7 58 9 72 20 121 26 503 8 521 -7 7
-208 19 -216 13z m-1702 -1545 c229 -53 408 -286 401 -524 -3 -98 -13 -139
-54 -225 -68 -146 -219 -262 -381 -295 -167 -34 -348 23 -473 147 -67 67 -97
112 -126 190 -71 191 -27 407 112 552 144 149 319 201 521 155z"/>
<path d="M1851 2714 c-195 -41 -337 -142 -418 -301 -23 -43 -57 -136 -77 -208
-20 -71 -40 -143 -45 -160 -29 -88 -251 -954 -251 -978 0 -10 4 -16 8 -13 5 3
19 7 33 10 20 4 280 70 314 80 6 2 24 6 40 11 307 79 650 169 685 180 25 7 79
23 120 36 67 19 193 76 224 99 163 127 251 323 242 540 -6 134 -32 227 -95
335 -43 73 -196 230 -271 278 -49 30 -200 93 -200 82 0 -2 -15 1 -32 6 -52 16
-207 18 -277 3z"/>
</g>
</svg>
