<?xml version="1.0" encoding="UTF-8" standalone="no"?>
<!-- Created with Inkscape (http://www.inkscape.org/) -->

<svg
   xmlns:dc="http://purl.org/dc/elements/1.1/"
   xmlns:cc="http://creativecommons.org/ns#"
   xmlns:rdf="http://www.w3.org/1999/02/22-rdf-syntax-ns#"
   xmlns:svg="http://www.w3.org/2000/svg"
   xmlns="http://www.w3.org/2000/svg"
   xmlns:sodipodi="http://sodipodi.sourceforge.net/DTD/sodipodi-0.dtd"
   xmlns:inkscape="http://www.inkscape.org/namespaces/inkscape"
   width="256"
   height="256"
   viewBox="0 0 67.733332 67.733335"
   version="1.1"
   id="svg8"
   inkscape:version="0.92.1 r15371"
   sodipodi:docname="envelope.svg">
  <defs
     id="defs2" />
  <sodipodi:namedview
     id="base"
     pagecolor="#ffffff"
     bordercolor="#666666"
     borderopacity="1.0"
     inkscape:pageopacity="0.0"
     inkscape:pageshadow="2"
     inkscape:zoom="2"
     inkscape:cx="136.95578"
     inkscape:cy="134.95928"
     inkscape:document-units="mm"
     inkscape:current-layer="layer2"
     showgrid="false"
     units="px"
     inkscape:window-width="1366"
     inkscape:window-height="705"
     inkscape:window-x="-8"
     inkscape:window-y="-8"
     inkscape:window-maximized="1" />
  <metadata
     id="metadata5">
    <rdf:RDF>
      <cc:Work
         rdf:about="">
        <dc:format>image/svg+xml</dc:format>
        <dc:type
           rdf:resource="http://purl.org/dc/dcmitype/StillImage" />
        <dc:title></dc:title>
      </cc:Work>
    </rdf:RDF>
  </metadata>
  <g
     inkscape:groupmode="layer"
     id="layer2"
     inkscape:label="Envelope"
     sodipodi:insensitive="true">
    <g
       id="g4590"
       transform="matrix(1.4814815,0,0,1.4399207,-15.24784,-13.341207)">
      <path
         transform="matrix(1.348487,0,0,0.40369224,-4.0664306,15.932547)"
         inkscape:transform-center-y="-1.8520835"
         d="m 44.022929,26.729198 -31.785624,-1e-6 15.892812,-27.52715728 z"
         inkscape:randomized="0"
         inkscape:rounded="0"
         inkscape:flatsided="true"
         sodipodi:arg2="1.5707963"
         sodipodi:arg1="0.52359878"
         sodipodi:r2="9.1757193"
         sodipodi:r1="18.351439"
         sodipodi:cy="17.553478"
         sodipodi:cx="28.130117"
         sodipodi:sides="3"
         id="path24"
         style="opacity:1;fill:#ffffff;fill-opacity:1;stroke:none;stroke-width:4.63549995;stroke-miterlimit:4;stroke-dasharray:none;stroke-opacity:0.18592966"
         sodipodi:type="star" />
      <g
         style="fill:#ffffff;fill-opacity:1;stroke:#fffff3;stroke-opacity:1"
         id="g4548">
        <path
           style="fill:#ffffff;fill-opacity:1;stroke:#fffff3;stroke-width:0.26490977px;stroke-linecap:butt;stroke-linejoin:miter;stroke-opacity:1"
           d="m 12.580836,26.722917 v 23.01875"
           id="path42"
           inkscape:connector-curvature="0" />
        <path
           style="fill:#ffffff;fill-opacity:1;stroke:#fffff3;stroke-width:0.26711738px;stroke-linecap:butt;stroke-linejoin:miter;stroke-opacity:1"
           d="m 55.139111,26.722917 v 23.01875"
           id="path44"
           inkscape:connector-curvature="0" />
        <path
           style="fill:#ffffff;fill-opacity:1;stroke:#fffff3;stroke-width:0.264;stroke-linecap:butt;stroke-linejoin:miter;stroke-miterlimit:4;stroke-dasharray:none;stroke-opacity:1"
           d="m 55.271742,49.741666 c -42.822889,0 -42.822889,0 -42.822889,0 v 0"
           id="path48"
           inkscape:connector-curvature="0" />
        <path
           style="fill:#ffffff;fill-opacity:1;stroke:#fffff3;stroke-width:0.26458332px;stroke-linecap:butt;stroke-linejoin:miter;stroke-opacity:1"
           d="M 38.430729,35.520312 C 55.13911,49.741666 55.13911,49.741666 55.13911,49.741666"
           id="path4530"
           inkscape:connector-curvature="0" />
        <path
           style="fill:#ffffff;fill-opacity:1;stroke:#fffff3;stroke-width:0.26458332px;stroke-linecap:butt;stroke-linejoin:miter;stroke-opacity:1"
           d="M 55.13911,26.722916 C 38.430729,35.520312 38.430729,35.520312 38.430729,35.520312"
           id="path4532"
           inkscape:connector-curvature="0" />
        <path
           style="fill:#ffffff;fill-opacity:1;stroke:#fffff3;stroke-width:0.26458332px;stroke-linecap:butt;stroke-linejoin:miter;stroke-opacity:1"
           d="M 12.580836,26.722916 C 54.834895,48.08802 54.834895,48.08802 54.834895,48.08802 v 0"
           id="path4534"
           inkscape:connector-curvature="0" />
      </g>
      <path
         inkscape:connector-curvature="0"
         id="path4566"
         d="M 12.580836,38.209574 V 26.677451 l 5.225741,2.635118 c 2.874161,1.449313 6.344827,3.202877 7.712596,3.896802 1.367767,0.693927 6.600231,3.339523 11.627698,5.879099 5.027468,2.539578 10.249703,5.178389 11.604963,5.864031 l 2.464108,1.246617 1.971893,1.675559 c 1.084539,0.921556 2.016178,1.718639 2.070307,1.77129 0.08514,0.0828 -2.781961,0.0957 -21.289444,0.0957 H 12.580836 Z"
         style="opacity:1;fill:#ffffff;fill-opacity:1;stroke:none;stroke-width:0.06706394;stroke-miterlimit:4;stroke-dasharray:none;stroke-opacity:1" />
      <path
         transform="scale(0.26458333)"
         inkscape:connector-curvature="0"
         id="path4568"
         d="m 201.84065,181.79257 c -3.25914,-2.77417 -5.88758,-5.08208 -5.84097,-5.12868 0.0466,-0.0466 2.52806,1.17442 5.51435,2.7134 4.18794,2.15825 5.47704,2.72142 5.63698,2.46263 0.11405,-0.18453 0.14925,-0.42953 0.0782,-0.54444 -0.071,-0.11491 -3.45066,-1.87043 -7.5103,-3.90116 l -7.38118,-3.69223 -23.0687,-19.61078 c -19.36144,-16.45923 -23.00791,-19.65923 -22.69047,-19.91227 0.20802,-0.16582 11.02287,-5.89645 24.03299,-12.73473 13.01012,-6.83828 26.69227,-14.03089 30.40477,-15.98359 l 6.75,-3.55035 0.0639,21.22258 c 0.0351,11.67242 0.0351,30.78081 0,42.46308 l -0.0639,21.24049 z"
         style="opacity:1;fill:#ffffff;fill-opacity:1;stroke:none;stroke-width:0.24944882;stroke-miterlimit:4;stroke-dasharray:none;stroke-opacity:1" />
      <path
         inkscape:connector-curvature="0"
         id="path4570"
         d="m 53.504207,48.369914 c -0.899043,-0.754461 -1.622728,-1.383437 -1.608192,-1.397719 0.0145,-0.01425 0.68012,0.295495 1.479081,0.688396 0.798958,0.392901 1.483918,0.714362 1.52213,0.714362 0.299782,0 -0.212748,-0.308357 -1.967947,-1.183998 -1.118846,-0.558171 -2.148297,-1.10803 -2.287668,-1.221906 -0.661608,-0.540574 -9.265918,-7.735584 -10.770321,-9.006254 -1.650246,-1.393847 -1.69926,-1.442385 -1.549118,-1.53397 0.38892,-0.237232 16.805014,-8.704309 16.829465,-8.680282 0.01209,0.01189 0.01416,5.190214 0.0045,11.50738 l -0.01743,11.485743 z"
         style="opacity:1;fill:#ffffff;fill-opacity:1;stroke:none;stroke-width:0.06810028;stroke-miterlimit:4;stroke-dasharray:none;stroke-opacity:1" />
      <rect
         y="43.639713"
         x="49.964909"
         height="5.7941146"
         width="5.0065975"
         id="rect4576"
         style="opacity:1;fill:#ffffff;fill-opacity:1;stroke:none;stroke-width:0.34047821;stroke-miterlimit:4;stroke-dasharray:none;stroke-opacity:1" />
    </g>
  </g>
</svg>
