<?xml version="1.0" encoding="UTF-8" standalone="no"?>
<!-- Created with Inkscape (http://www.inkscape.org/) -->

<svg
   xmlns:dc="http://purl.org/dc/elements/1.1/"
   xmlns:cc="http://creativecommons.org/ns#"
   xmlns:rdf="http://www.w3.org/1999/02/22-rdf-syntax-ns#"
   xmlns:svg="http://www.w3.org/2000/svg"
   xmlns="http://www.w3.org/2000/svg"
   xmlns:sodipodi="http://sodipodi.sourceforge.net/DTD/sodipodi-0.dtd"
   xmlns:inkscape="http://www.inkscape.org/namespaces/inkscape"
   width="768"
   height="512"
   viewBox="0 0 203.19999 135.46667"
   version="1.1"
   id="svg8"
   inkscape:version="0.92.1 r15371"
   sodipodi:docname="unigram_crash.svg">
  <defs
     id="defs2">
    <clipPath
       id="clipPath3696"
       clipPathUnits="userSpaceOnUse">
      <path
         inkscape:connector-curvature="0"
         id="path3694"
         d="M 0,100 H 100 V 0 H 0 Z" />
    </clipPath>
  </defs>
  <sodipodi:namedview
     id="base"
     pagecolor="#ffffff"
     bordercolor="#666666"
     borderopacity="1.0"
     inkscape:pageopacity="0.0"
     inkscape:pageshadow="2"
     inkscape:zoom="0.7"
     inkscape:cx="144.76399"
     inkscape:cy="167.29435"
     inkscape:document-units="px"
     inkscape:current-layer="layer1"
     showgrid="false"
     units="px"
     inkscape:window-width="1366"
     inkscape:window-height="705"
     inkscape:window-x="-8"
     inkscape:window-y="-8"
     inkscape:window-maximized="1" />
  <metadata
     id="metadata5">
    <rdf:RDF>
      <cc:Work
         rdf:about="">
        <dc:format>image/svg+xml</dc:format>
        <dc:type
           rdf:resource="http://purl.org/dc/dcmitype/StillImage" />
        <dc:title></dc:title>
      </cc:Work>
    </rdf:RDF>
  </metadata>
  <g
     inkscape:label="Background"
     inkscape:groupmode="layer"
     id="layer1"
     transform="translate(0,-161.53331)"
     sodipodi:insensitive="true"
     style="display:none">
    <rect
       style="opacity:0.98108108;fill:#ff0000;fill-opacity:1;stroke:none;stroke-width:3.10163474;stroke-miterlimit:4;stroke-dasharray:none;stroke-opacity:0.8745098"
       id="rect4485"
       width="203.2"
       height="135.46666"
       x="0"
       y="161.53331" />
  </g>
  <g
     inkscape:groupmode="layer"
     id="layer2"
     inkscape:label="Rocket">
    <g
       style="fill:#f9f9f9"
       clip-path="url(#clipPath3696)"
       id="g3692"
       transform="matrix(0.97203354,0.31583293,-0.31583888,0.97205184,67.573685,3.1284475)">
      <g
         style="fill:#f9f9f9"
         transform="translate(66.6377,51.5918)"
         id="g3698">
        <path
           inkscape:connector-curvature="0"
           id="path3700"
           style="fill:#f9f9f9;fill-opacity:1;fill-rule:nonzero;stroke:none"
           d="m 0,0 c 4.151,4.153 4.155,10.889 0,15.044 -4.15,4.151 -10.891,4.151 -15.046,0 -4.15,-4.155 -4.15,-10.894 0,-15.044 C -10.887,-4.156 -4.154,-4.148 0,0 m -10.055,-39.758 c -3.862,-3.611 -7.859,-7.051 -11.768,-10.581 -1.972,-1.814 -2.328,-1.732 -3.149,0.75 -1.241,3.725 -2.474,7.413 -3.674,11.129 0.547,1.375 0.946,2.849 1.144,4.431 0.565,4.633 -0.371,8.874 -2.713,12.465 l -1.028,1.426 c -0.446,0.556 -0.929,1.095 -1.444,1.612 l -0.45,0.43 0.008,0.009 -0.448,0.453 c -0.511,0.504 -1.054,0.987 -1.633,1.435 l -1.408,1.021 c -3.586,2.371 -7.842,3.302 -12.453,2.725 -1.597,-0.194 -3.037,-0.609 -4.416,-1.151 -3.745,1.185 -7.424,2.431 -11.172,3.68 -2.465,0.802 -2.529,1.182 -0.733,3.173 3.548,3.87 6.976,7.872 10.59,11.742 0.77,0.834 1.923,1.539 3.015,1.86 4.543,1.213 9.153,2.109 13.665,3.422 1.216,0.319 2.526,1.121 3.364,2.08 11.775,13.764 11.502772,15.09843 28.373772,21.98143 7.425,3.008 8.0488502,-0.313074 10.515223,-0.232821 0.926,-0.032 7.138469,-2.132701 7.681469,-2.227701 0.095,-0.53 3.828275,-0.765029 4.803911,-1.953055 C 19.760669,27.746511 31.891,30.271 28.864,22.867 21.973,5.984 11.06,-7.954 -2.706,-19.733 c -0.97,-0.824 -1.741,-2.108 -2.091,-3.336 -1.271,-4.517 -2.184,-9.159 -3.409,-13.667 -0.306,-1.099 -1.009,-2.25 -1.849,-3.022"
           sodipodi:nodetypes="ccccccccccccccccccccccccccccccccccc" />
      </g>
    </g>
  </g>
  <g
     inkscape:groupmode="layer"
     id="layer3"
     inkscape:label="Terrain"
     sodipodi:insensitive="true">
    <rect
       style="opacity:0.98108108;fill:#e6e6e6;fill-opacity:1;stroke:none;stroke-width:3.26009607;stroke-miterlimit:4;stroke-dasharray:none;stroke-opacity:0.8745098"
       id="rect4534"
       width="85.162659"
       height="3.7417734"
       x="63.97142"
       y="106.60155"
       ry="1.8708867" />
    <rect
       style="opacity:0.98108108;fill:#e6e6e6;fill-opacity:1;stroke:none;stroke-width:1.40754616;stroke-miterlimit:4;stroke-dasharray:none;stroke-opacity:0.8745098"
       id="rect4534-9"
       width="15.875"
       height="3.7417734"
       x="43.656246"
       y="106.60155"
       ry="1.8708867" />
    <rect
       style="opacity:0.98108108;fill:#e6e6e6;fill-opacity:1;stroke:none;stroke-width:1.40754616;stroke-miterlimit:4;stroke-dasharray:none;stroke-opacity:0.8745098"
       id="rect4534-9-6"
       width="15.875"
       height="3.7417734"
       x="23.8125"
       y="106.60165"
       ry="1.8708867" />
    <rect
       style="opacity:0.98108108;fill:#e6e6e6;fill-opacity:1;stroke:none;stroke-width:1.40754616;stroke-miterlimit:4;stroke-dasharray:none;stroke-opacity:0.8745098"
       id="rect4534-9-7"
       width="15.875"
       height="3.7417734"
       x="173.30206"
       y="106.60155"
       ry="1.8708867" />
    <rect
       style="opacity:0.98108108;fill:#e6e6e6;fill-opacity:1;stroke:none;stroke-width:1.40754616;stroke-miterlimit:4;stroke-dasharray:none;stroke-opacity:0.8745098"
       id="rect4534-9-6-3"
       width="15.875"
       height="3.7417734"
       x="153.45833"
       y="106.60165"
       ry="1.8708867" />
  </g>
</svg>
